<svg version="1.1" xmlns="http://www.w3.org/2000/svg" xmlns:xlink="http://www.w3.org/1999/xlink" x="0px" y="0px" viewBox="0 0 1000 1000" enable-background="new 0 0 1000 1000" xml:space="preserve">
<g><path d="M500,990C229.4,990,10,770.6,10,500C10,229.4,229.4,10,500,10c270.6,0,490,219.4,490,490C990,770.6,770.6,990,500,990z M500,71.3c-236.8,0-428.8,192-428.8,428.7c0,236.8,192,428.8,428.8,428.8c236.8,0,428.7-192,428.7-428.8C928.7,263.2,736.8,71.3,500,71.3z M835.1,616.3l-14.4,14.5c-12,12.1-31.4,12.1-43.3,0L510.2,361.6L243.1,630.9c-12,12.1-31.4,12.1-43.3,0l-14.4-14.5c-12-12.1-12-31.6,0-43.7l303.3-305.6c12-12.1,31.4-12.1,43.3,0l303.2,305.6C847.1,584.7,847.1,604.3,835.1,616.3z"/></g>
</svg>